<?xml version="1.0" encoding="UTF-8"?>
<svg id="Text_Layers" data-name="Text Layers" xmlns="http://www.w3.org/2000/svg" xmlns:xlink="http://www.w3.org/1999/xlink" viewBox="0 0 1500 1000">
  <defs>
    <style>
      .cls-1 {
        fill: #ff834b;
      }

      .cls-2 {
        fill: url(#_Безымянный_градиент_19);
      }

      .cls-3 {
        fill: #0c2fff;
      }

      .cls-4 {
        fill: url(#_Безымянный_градиент_31);
      }
    </style>
    <linearGradient id="_Безымянный_градиент_31" data-name="Безымянный градиент 31" x1="513.23" y1="489.44" x2="570.1" y2="541.03" gradientUnits="userSpaceOnUse">
      <stop offset="0" stop-color="#ff814a"/>
      <stop offset="1" stop-color="#fac671"/>
    </linearGradient>
    <linearGradient id="_Безымянный_градиент_19" data-name="Безымянный градиент 19" x1="469.43" y1="524.59" x2="538.54" y2="477.3" gradientUnits="userSpaceOnUse">
      <stop offset="0" stop-color="#0024ff"/>
      <stop offset="0" stop-color="#0024ff"/>
      <stop offset=".29" stop-color="#2344ff"/>
      <stop offset=".56" stop-color="#3b5bff"/>
      <stop offset=".8" stop-color="#4a69ff"/>
      <stop offset="1" stop-color="#506eff"/>
    </linearGradient>
  </defs>
  <g>
    <path class="cls-3" d="m628.79,530.06c-8.53,0-15.62-2.84-21.27-8.53-5.65-5.68-8.48-12.79-8.48-21.32s2.82-15.64,8.48-21.32c5.65-5.68,12.78-8.53,21.37-8.53,7.21,0,13.5,2.06,18.88,6.19,5.37,4.13,8.58,9.72,9.62,16.8h-15.29c-.83-2.98-2.44-5.27-4.84-6.86-2.39-1.59-5.18-2.39-8.37-2.39-4.51,0-8.11,1.49-10.82,4.47-2.7,2.98-4.02,6.86-3.95,11.65-.07,4.78,1.26,8.67,4,11.65,2.74,2.98,6.29,4.47,10.66,4.47,3.19,0,6-.8,8.43-2.39,2.43-1.59,4.06-3.92,4.89-6.97h15.29c-1.11,7.28-4.35,12.95-9.72,17-5.37,4.06-11.67,6.08-18.88,6.08Z"/>
    <path class="cls-3" d="m664.36,528.81v-80.09h14.87v80.09h-14.87Z"/>
    <path class="cls-3" d="m695.98,445.19c2.7,0,4.92.82,6.66,2.44,1.73,1.63,2.6,3.73,2.6,6.29s-.87,4.68-2.6,6.34c-1.73,1.66-3.95,2.5-6.66,2.5s-4.84-.83-6.6-2.5c-1.77-1.66-2.65-3.78-2.65-6.34s.88-4.58,2.65-6.24c1.77-1.66,3.97-2.5,6.6-2.5Zm-7.49,83.62v-57.2h14.87v57.2h-14.87Z"/>
    <path class="cls-3" d="m781.16,470.36c6.1,0,10.92,1.98,14.46,5.93,3.54,3.95,5.3,9.4,5.3,16.33v36.19h-14.87v-32.97c0-3.74-.78-6.57-2.34-8.48-1.56-1.91-4.07-2.86-7.54-2.86-3.88,0-6.83,1.23-8.84,3.69-2.01,2.46-3.02,5.98-3.02,10.56v30.06h-14.87v-32.97c0-3.74-.78-6.57-2.34-8.48-1.56-1.91-4.07-2.86-7.54-2.86-3.88,0-6.85,1.23-8.89,3.69-2.05,2.46-3.07,5.98-3.07,10.56l.1,30.06h-14.98v-57.2h14.98v7.59c4.16-5.89,9.81-8.84,16.95-8.84,8.32,0,14.11,3.61,17.37,10.82,4.44-7.21,10.82-10.82,19.14-10.82Z"/>
    <path class="cls-3" d="m838.15,470.36c9.36,0,16.76,3.22,22.21,9.67,5.44,6.45,7.78,14.46,7.02,24.03h-43.89c.48,4.44,2.08,7.84,4.78,10.19,2.7,2.36,6.07,3.54,10.09,3.54,2.91,0,5.51-.64,7.8-1.92,2.29-1.28,3.92-3.03,4.89-5.25h15.39c-2.01,6.45-5.55,11.3-10.61,14.56-5.06,3.26-10.85,4.89-17.37,4.89-8.88,0-16.12-2.81-21.74-8.43-5.62-5.62-8.43-12.72-8.43-21.32s2.81-15.74,8.43-21.43c5.62-5.68,12.76-8.53,21.43-8.53Zm-.1,12.27c-3.54,0-6.48.95-8.84,2.86-2.36,1.91-4.02,4.46-4.99,7.64h27.35c-.83-3.19-2.43-5.74-4.78-7.64-2.36-1.91-5.27-2.86-8.74-2.86Z"/>
    <path class="cls-1" d="m878.87,514.87c1.77-1.66,3.97-2.5,6.6-2.5s4.84.83,6.6,2.5c1.77,1.66,2.65,3.78,2.65,6.34s-.88,4.68-2.65,6.35c-1.77,1.66-3.97,2.5-6.6,2.5s-4.84-.83-6.6-2.5c-1.77-1.66-2.65-3.78-2.65-6.35s.88-4.68,2.65-6.34Z"/>
    <path class="cls-1" d="m923.02,514.77h29.75v14.04h-48.99v-14.04l28.91-29.12h-27.25v-14.04h46.6v14.04l-29.02,29.12Z"/>
    <path class="cls-1" d="m968.71,445.19c2.7,0,4.92.82,6.66,2.44,1.73,1.63,2.6,3.73,2.6,6.29s-.87,4.68-2.6,6.34c-1.73,1.66-3.95,2.5-6.66,2.5s-4.84-.83-6.6-2.5c-1.77-1.66-2.65-3.78-2.65-6.34s.88-4.58,2.65-6.24c1.77-1.66,3.97-2.5,6.6-2.5Zm-7.49,83.62v-57.2h14.87v57.2h-14.87Z"/>
    <path class="cls-1" d="m1017.67,470.36c7.42,0,13.63,2.79,18.62,8.37,4.99,5.58,7.49,12.74,7.49,21.48s-2.48,15.9-7.44,21.48c-4.96,5.58-11.18,8.37-18.67,8.37s-13.59-2.98-18.1-8.94v33.7h-14.87v-83.21h14.87v8.01c4.44-6.17,10.47-9.26,18.1-9.26Zm-3.43,45.56c4.16,0,7.61-1.46,10.35-4.37,2.74-2.91,4.11-6.69,4.11-11.34s-1.35-8.42-4.06-11.34-6.17-4.37-10.4-4.37-7.73,1.46-10.51,4.37c-2.77,2.91-4.16,6.69-4.16,11.34s1.39,8.42,4.16,11.34c2.77,2.91,6.28,4.37,10.51,4.37Z"/>
  </g>
  <g>
    <path class="cls-4" d="m582.54,501.88c0,17.9-14.51,32.4-32.4,32.4h-10.63l-26.11,20.09,13.78-20.09,21.81-31.79h-27.06l3.45-34.07c5.23-8.52,14.78-2.15,18.22,1.01.07.06.14.12.2.19.15.14.28.27.4.39,1.92-.35,3.91-.54,5.94-.54,17.9,0,32.4,14.51,32.4,32.4Z"/>
    <path class="cls-2" d="m543.59,469.43c-3.44-3.16-12.99-9.53-18.22-1.01l-35.59,51.88h27.06l-1.42,13.99h-31.83c-15.11,0-27.37-12.26-27.37-27.38s12.26-27.38,27.37-27.38h.27c6.22-12.23,18.93-20.62,33.61-20.62,10.15,0,19.35,4.01,26.12,10.52Z"/>
  </g>
</svg>