<?xml version="1.0" encoding="UTF-8"?>
<svg id="Layer_2" data-name="Layer 2" xmlns="http://www.w3.org/2000/svg" xmlns:xlink="http://www.w3.org/1999/xlink" viewBox="0 0 1217.94 227.24">
  <defs>
    <style>
      .cls-1 {
        fill: #ff834b;
      }

      .cls-2 {
        fill: url(#_Безымянный_градиент_19);
      }

      .cls-3 {
        fill: #0c2fff;
      }

      .cls-4 {
        fill: url(#_Безымянный_градиент_31);
      }
    </style>
    <linearGradient id="_Безымянный_градиент_31" data-name="Безымянный градиент 31" x1="118.16" y1="91.74" x2="236.06" y2="198.67" gradientUnits="userSpaceOnUse">
      <stop offset="0" stop-color="#ff814a"/>
      <stop offset="1" stop-color="#fac671"/>
    </linearGradient>
    <linearGradient id="_Безымянный_градиент_19" data-name="Безымянный градиент 19" x1="27.38" y1="164.59" x2="170.64" y2="66.57" gradientUnits="userSpaceOnUse">
      <stop offset="0" stop-color="#0024ff"/>
      <stop offset="0" stop-color="#0024ff"/>
      <stop offset=".29" stop-color="#2344ff"/>
      <stop offset=".56" stop-color="#3b5bff"/>
      <stop offset=".8" stop-color="#4a69ff"/>
      <stop offset="1" stop-color="#506eff"/>
    </linearGradient>
  </defs>
  <g id="Text_Layers" data-name="Text Layers">
    <g>
      <g>
        <path class="cls-3" d="m357.71,175.93c-17.68,0-32.38-5.89-44.09-17.68-11.72-11.78-17.57-26.52-17.57-44.2s5.85-32.41,17.57-44.2c11.71-11.78,26.48-17.68,44.31-17.68,14.95,0,27.99,4.28,39.13,12.83,11.14,8.55,17.79,20.16,19.94,34.82h-31.69c-1.72-6.18-5.07-10.92-10.03-14.23-4.96-3.31-10.75-4.96-17.36-4.96-9.35,0-16.82,3.09-22.42,9.27-5.61,6.18-8.34,14.23-8.19,24.15-.14,9.92,2.62,17.97,8.3,24.15,5.68,6.18,13.04,9.27,22.1,9.27,6.61,0,12.43-1.65,17.46-4.96,5.03-3.31,8.41-8.12,10.13-14.44h31.69c-2.3,15.09-9.02,26.84-20.16,35.25-11.14,8.41-24.18,12.61-39.13,12.61Z"/>
        <path class="cls-3" d="m431.44,173.34V7.33h30.83v166.01h-30.83Z"/>
        <path class="cls-3" d="m496.98,0c5.61,0,10.2,1.69,13.8,5.07,3.59,3.38,5.39,7.73,5.39,13.04s-1.8,9.7-5.39,13.15c-3.59,3.45-8.19,5.17-13.8,5.17s-10.03-1.72-13.69-5.17c-3.67-3.45-5.5-7.83-5.5-13.15s1.83-9.49,5.5-12.94c3.66-3.45,8.23-5.17,13.69-5.17Zm-15.52,173.34V54.76h30.83v118.58h-30.83Z"/>
        <path class="cls-3" d="m673.56,52.18c12.65,0,22.64,4.1,29.97,12.29,7.33,8.19,11,19.48,11,33.85v75.03h-30.83v-68.34c0-7.76-1.62-13.62-4.85-17.57-3.23-3.95-8.44-5.93-15.63-5.93-8.05,0-14.16,2.55-18.33,7.65-4.17,5.1-6.25,12.4-6.25,21.88v62.31h-30.83v-68.34c0-7.76-1.62-13.62-4.85-17.57-3.23-3.95-8.44-5.93-15.63-5.93-8.05,0-14.2,2.55-18.43,7.65-4.24,5.1-6.36,12.4-6.36,21.88l.22,62.31h-31.05V54.76h31.05v15.74c8.62-12.21,20.34-18.33,35.14-18.33,17.25,0,29.25,7.47,36,22.42,9.2-14.95,22.42-22.42,39.67-22.42Z"/>
        <path class="cls-3" d="m791.7,52.18c19.41,0,34.75,6.68,46.03,20.05,11.28,13.37,16.13,29.97,14.55,49.8h-90.98c1,9.2,4.31,16.25,9.92,21.13,5.61,4.89,12.58,7.33,20.91,7.33,6.04,0,11.43-1.33,16.17-3.99,4.74-2.66,8.12-6.29,10.13-10.89h31.91c-4.17,13.37-11.5,23.43-21.99,30.19-10.49,6.76-22.5,10.13-36.01,10.13-18.4,0-33.42-5.82-45.06-17.46-11.64-11.64-17.46-26.37-17.46-44.2s5.82-32.63,17.46-44.41c11.64-11.78,26.44-17.68,44.41-17.68Zm-.21,25.44c-7.33,0-13.44,1.98-18.33,5.93-4.89,3.96-8.34,9.24-10.35,15.85h56.7c-1.72-6.61-5.03-11.89-9.92-15.85-4.89-3.95-10.92-5.93-18.11-5.93Z"/>
        <path class="cls-1" d="m876.11,144.45c3.66-3.45,8.23-5.18,13.69-5.18s10.03,1.73,13.69,5.18c3.66,3.45,5.5,7.83,5.5,13.15s-1.83,9.7-5.5,13.15c-3.66,3.45-8.23,5.17-13.69,5.17s-10.03-1.73-13.69-5.17c-3.67-3.45-5.5-7.83-5.5-13.15s1.83-9.7,5.5-13.15Z"/>
        <path class="cls-1" d="m967.63,144.23h61.66v29.11h-101.55v-29.11l59.94-60.37h-56.49v-29.11h96.59v29.11l-60.15,60.37Z"/>
        <path class="cls-1" d="m1062.34,0c5.61,0,10.2,1.69,13.8,5.07,3.59,3.38,5.39,7.73,5.39,13.04s-1.8,9.7-5.39,13.15c-3.59,3.45-8.19,5.17-13.8,5.17s-10.03-1.72-13.69-5.17c-3.66-3.45-5.5-7.83-5.5-13.15s1.83-9.49,5.5-12.94c3.66-3.45,8.23-5.17,13.69-5.17Zm-15.52,173.34V54.76h30.83v118.58h-30.83Z"/>
        <path class="cls-1" d="m1163.83,52.18c15.38,0,28.24,5.79,38.59,17.36,10.35,11.57,15.52,26.41,15.52,44.52s-5.14,32.95-15.41,44.52c-10.28,11.57-23.18,17.36-38.7,17.36s-28.17-6.18-37.51-18.54v69.85h-30.83V54.76h30.83v16.6c9.2-12.79,21.7-19.19,37.51-19.19Zm-7.11,94.43c8.62,0,15.77-3.02,21.45-9.06,5.68-6.04,8.52-13.87,8.52-23.5s-2.8-17.46-8.41-23.5c-5.61-6.04-12.79-9.06-21.56-9.06s-16.03,3.02-21.78,9.06c-5.75,6.04-8.62,13.87-8.62,23.5s2.87,17.46,8.62,23.5c5.75,6.04,13.01,9.06,21.78,9.06Z"/>
      </g>
      <g>
        <path class="cls-4" d="m261.83,117.52c0,37.1-30.07,67.17-67.17,67.17h-22.04l-54.12,41.64,28.56-41.64,45.21-65.89h-56.1l7.15-70.63c10.85-17.66,30.65-4.46,37.77,2.09.15.13.28.26.42.39.31.3.59.56.83.82,3.99-.72,8.11-1.11,12.31-1.11,37.1,0,67.17,30.07,67.17,67.17Z"/>
        <path class="cls-2" d="m181.11,50.26c-7.13-6.55-26.93-19.76-37.77-2.09l-73.77,107.53h56.1l-2.94,28.99H56.74c-31.33,0-56.74-25.41-56.74-56.75s25.41-56.75,56.74-56.75h.56c12.9-25.36,39.25-42.74,69.67-42.74,21.03,0,40.11,8.32,54.14,21.81Z"/>
      </g>
    </g>
  </g>
</svg>